<svg xmlns="http://www.w3.org/2000/svg" viewBox="0 0 320 250" role="img" aria-label="ac technical illustration">
  <defs>
    <radialGradient id="wash"><stop stop-color="#FFCF8C" stop-opacity=".34"/><stop offset="1" stop-color="#FFF7EC" stop-opacity="0"/></radialGradient>
    <linearGradient id="face" x1="0" y1="0" x2="1" y2="1"><stop stop-color="#FFFBF4" stop-opacity=".7"/><stop offset=".65" stop-color="#FFD8A8" stop-opacity=".32"/><stop offset="1" stop-color="#F5820B" stop-opacity=".08"/></linearGradient>
    <filter id="blur"><feGaussianBlur stdDeviation="8"/></filter>
    <g id="subject" fill="url(#face)" stroke-linecap="round" stroke-linejoin="round" stroke-width="2.1">
      <path d="M8 29 L83 21 Q91 21 93 29 L94 59 Q94 66 87 67 L15 75 Q9 75 8 69 Z"/>
      <path d="M15 37 L86 30 L87 56 L16 65 Z M20 69 L82 62"/>
      <path d="M22 43 L80 37 M22 49 L80 43 M22 55 L80 49" stroke-width="1.5"/>
      <path d="M26 78 Q21 86 29 91 M46 76 Q39 87 47 94 M67 73 Q60 84 68 90" stroke-width="1.3" opacity=".65"/>
      <circle cx="84" cy="61" r="1.5"/></g>
  </defs>
  <ellipse cx="211" cy="119" rx="123" ry="105" fill="url(#wash)"/>
  
  <g fill="none" stroke="#F5820B" stroke-width="1" opacity=".15">
    <path d="M32 211 L303 176 M55 229 L310 198 M95 236 L314 219 M88 72 L295 35 M119 52 L280 16"/>
    <path d="M67 175 Q172 226 310 153 M89 55 Q193 5 296 53" stroke-dasharray="3 6"/>
    <circle cx="224" cy="118" r="96" stroke-dasharray="2 8"/>
    <circle cx="224" cy="118" r="112" stroke-dasharray="1 11"/>
  </g>
  <ellipse cx="224" cy="209" rx="81" ry="12" fill="#C4620A" opacity=".16" filter="url(#blur)"/>
  <g transform="translate(84 12) scale(2.2)">
    <use href="#subject" transform="translate(5 7)" fill="none" stroke="#C4620A" opacity=".18" stroke-width="3.6"/>
    <use href="#subject" transform="translate(2 3)" fill="none" stroke="#FFB347" opacity=".52" stroke-width="3"/>
    <use href="#subject" stroke="#C4620A"/>
  </g>
  <g fill="#F5820B" opacity=".28"><circle cx="104" cy="182" r="2"/><circle cx="298" cy="53" r="2"/><circle cx="304" cy="166" r="2"/></g>
  <g fill="none" stroke="#F5820B" opacity=".2" stroke-width="1"><path d="M104 182h-27v15 M298 53h12v-16 M304 166h12v15"/></g>
</svg>
